<?xml version="1.0" encoding="UTF-8"?>
<svg version="1.1" xmlns="http://www.w3.org/2000/svg" width="8000" height="3980">
<path d="M0 0 C460.02 0 920.04 0 1394 0 C1394 209.88 1394 419.76 1394 636 C1389.63823045 632.26134038 1385.55593468 628.68034741 1381.52662659 624.6468811 C1381.02245223 624.14356117 1380.51827786 623.64024123 1379.99882549 623.12166917 C1378.33220743 621.45668096 1376.66915772 619.78817623 1375.00610352 618.11962891 C1373.80333082 616.91657377 1372.60033716 615.71373952 1371.3971405 614.5111084 C1368.14748236 611.26173602 1364.9009069 608.00929957 1361.65489316 604.7562871 C1358.25609678 601.35122037 1354.85444994 597.94900363 1351.45310974 594.54647827 C1345.01979414 588.11006019 1338.58903095 581.67109825 1332.15919012 575.23120916 C1324.83587715 567.89670138 1317.5097092 560.56504817 1310.18330491 553.23362851 C1295.11903355 538.1589173 1280.05833532 523.08064065 1265 508 C1263.56053694 509.75280859 1262.12199392 511.50637276 1260.68383789 513.26025391 C1259.8826503 514.23668854 1259.08146271 515.21312317 1258.2559967 516.21914673 C1255.56003371 519.54232423 1252.97731402 522.93210962 1250.4375 526.375 C1245.60749741 532.86813003 1240.72363964 539.31802449 1235.8125 545.75 C1231.68931354 551.1526638 1227.56782193 556.55549646 1223.5 562 C1219.43217646 567.44450569 1215.31049628 572.84718889 1211.1875 578.25 C1206.43282001 584.4811795 1201.69244695 590.72180726 1197 597 C1191.6162364 604.20313003 1186.1664166 611.35499777 1180.7109375 618.50390625 C1176.60300443 623.88916208 1172.52266404 629.29274198 1168.46875 634.71875 C1164.30289386 640.27322485 1160.07453892 645.78072321 1155.86328125 651.30078125 C1152.39117375 655.85425806 1148.92729246 660.41270086 1145.5 665 C1140.66711777 671.46862698 1135.76087244 677.88108676 1130.86328125 684.30078125 C1127.39117375 688.85425806 1123.92729246 693.41270086 1120.5 698 C1115.66711777 704.46862698 1110.76087244 710.88108676 1105.86328125 717.30078125 C1102.39117375 721.85425806 1098.92729246 726.41270086 1095.5 731 C1090.66711777 737.46862698 1085.76087244 743.88108676 1080.86328125 750.30078125 C1077.39117375 754.85425806 1073.92729246 759.41270086 1070.5 764 C1066.43217646 769.44450569 1062.31049628 774.84718889 1058.1875 780.25 C1053.43282001 786.4811795 1048.69244695 792.72180726 1044 799 C1038.6162364 806.20313003 1033.1664166 813.35499777 1027.7109375 820.50390625 C1023.60300443 825.88916208 1019.52266404 831.29274198 1015.46875 836.71875 C1011.30289386 842.27322485 1007.07453892 847.78072321 1002.86328125 853.30078125 C999.39117375 857.85425806 995.92729246 862.41270086 992.5 867 C987.66711777 873.46862698 982.76087244 879.88108676 977.86328125 886.30078125 C974.39117375 890.85425806 970.92729246 895.41270086 967.5 900 C962.66711777 906.46862698 957.76087244 912.88108676 952.86328125 919.30078125 C949.39117375 923.85425806 945.92729246 928.41270086 942.5 933 C937.66711777 939.46862698 932.76087244 945.88108676 927.86328125 952.30078125 C924.39117375 956.85425806 920.92729246 961.41270086 917.5 966 C913.43217646 971.44450569 909.31049628 976.84718889 905.1875 982.25 C900.43282001 988.4811795 895.69244695 994.72180726 891 1001 C885.6162364 1008.20313003 880.1664166 1015.35499777 874.7109375 1022.50390625 C870.60300443 1027.88916208 866.52266404 1033.29274198 862.46875 1038.71875 C858.30289386 1044.27322485 854.07453892 1049.78072321 849.86328125 1055.30078125 C846.39117375 1059.85425806 842.92729246 1064.41270086 839.5 1069 C834.66711777 1075.46862698 829.76087244 1081.88108676 824.86328125 1088.30078125 C821.39117375 1092.85425806 817.92729246 1097.41270086 814.5 1102 C809.66711777 1108.46862698 804.76087244 1114.88108676 799.86328125 1121.30078125 C796.39117375 1125.85425806 792.92729246 1130.41270086 789.5 1135 C785.43217646 1140.44450569 781.31049628 1145.84718889 777.1875 1151.25 C772.43282001 1157.4811795 767.69244695 1163.72180726 763 1170 C757.6162364 1177.20313003 752.1664166 1184.35499777 746.7109375 1191.50390625 C742.60300443 1196.88916208 738.52266404 1202.29274198 734.46875 1207.71875 C730.30289386 1213.27322485 726.07453892 1218.78072321 721.86328125 1224.30078125 C718.39117375 1228.85425806 714.92729246 1233.41270086 711.5 1238 C706.66711777 1244.46862698 701.76087244 1250.88108676 696.86328125 1257.30078125 C693.39117375 1261.85425806 689.92729246 1266.41270086 686.5 1271 C682.3699054 1276.52797277 678.18535321 1282.01378084 674 1287.5 C669.10336317 1293.9196729 664.21428374 1300.34358453 659.3828125 1306.8125 C656.50416254 1310.6632842 653.61951868 1314.50954884 650.734375 1318.35546875 C650.18120605 1319.09293335 649.62803711 1319.83039795 649.05810547 1320.59020996 C647.70544954 1322.39350774 646.35274665 1324.19677027 645 1326 C646.152067 1326.00146521 646.152067 1326.00146521 647.32740808 1326.00296003 C692.95605595 1326.06136738 738.58465655 1326.13526566 784.21324624 1326.22898628 C789.70498946 1326.24025301 795.19673293 1326.25139169 800.68847656 1326.26245117 C801.78167811 1326.26465486 802.87487965 1326.26685854 804.00120851 1326.269129 C821.64883562 1326.30439863 839.29646269 1326.3293209 856.94411185 1326.35034702 C875.08323409 1326.37219175 893.22231101 1326.40532353 911.36139464 1326.44870156 C922.53342575 1326.47506972 933.70540053 1326.49287397 944.87746117 1326.49934604 C952.56249183 1326.50464573 960.24745191 1326.52101378 967.9324446 1326.54566566 C972.35102904 1326.55952577 976.76948761 1326.56891075 981.18809509 1326.56500816 C1006.59447031 1326.54712764 1031.56423614 1327.63232696 1056.5625 1332.6875 C1057.8407666 1332.94168701 1059.1190332 1333.19587402 1060.43603516 1333.45776367 C1073.54468385 1336.13079868 1086.30382255 1339.80697845 1099 1344 C1100.58868896 1344.52400391 1100.58868896 1344.52400391 1102.20947266 1345.05859375 C1143.44050077 1358.86337152 1182.31551696 1379.84748232 1217 1406 C1217.91362305 1406.68618408 1217.91362305 1406.68618408 1218.84570312 1407.38623047 C1226.38626554 1413.06670399 1233.74654758 1418.95800841 1241 1425 C1241.99483398 1425.82314697 1242.98966797 1426.64629395 1244.01464844 1427.49438477 C1253.01363651 1435.02262672 1261.39192856 1443.08211803 1269.66088867 1451.40014648 C1271.82052554 1453.57056561 1273.99073903 1455.72999817 1276.16210938 1457.88867188 C1283.57071812 1465.29019241 1290.54097309 1472.74734481 1297 1481 C1297.94630755 1482.12536751 1298.89959425 1483.24494753 1299.86328125 1484.35546875 C1353.31513836 1546.1618426 1394.53712589 1631.54727031 1394.046875 1714.59765625 C1394.04349121 1715.69920044 1394.04010742 1716.80074463 1394.03662109 1717.93566895 C1394.02787205 1720.62381236 1394.01559612 1723.31188908 1394 1726 C1355.74414472 1726.06598029 1317.4882851 1726.12924316 1279.23242188 1726.19042969 C1278.48380748 1726.19162726 1277.73519308 1726.19282483 1276.96389339 1726.19405869 C1196.744629 1726.32231302 1116.52536316 1726.43298843 1036.30603027 1726.50811768 C1034.52401792 1726.50979108 1032.74200557 1726.5114645 1030.95999322 1726.51313793 C993.55457359 1726.54821063 956.14915213 1726.58081116 918.74372788 1726.61055614 C899.95357077 1726.6255008 881.16341407 1726.64092048 862.37325772 1726.6567893 C859.53884455 1726.65918028 856.70443138 1726.66155771 853.87001821 1726.66393456 C810.22725999 1726.70065166 766.58454193 1726.74755223 722.9418335 1726.82397461 C722.00357217 1726.82561739 721.06531085 1726.82726018 720.09861736 1726.82895275 C704.97119594 1726.855501 689.84377608 1726.88290439 674.7163564 1726.91042129 C631.14139297 1726.98967145 587.56646047 1727.06259176 543.99143219 1727.09367752 C543.09522389 1727.09431994 542.19901558 1727.09496236 541.27564945 1727.09562425 C521.60103696 1727.10961387 501.92642409 1727.12035191 482.25180817 1727.12801179 C474.33523543 1727.13115123 466.41866292 1727.13475867 458.50209045 1727.13852692 C457.20244424 1727.13912861 457.20244424 1727.13912861 455.87654254 1727.13974245 C427.96647061 1727.15289657 400.05662825 1727.20413824 372.14664895 1727.2753865 C344.02846129 1727.34699174 315.91049632 1727.38118329 287.79221519 1727.36348785 C283.90505415 1727.36105095 280.01789299 1727.35904234 276.13073158 1727.35729218 C275.36874872 1727.35693361 274.60676586 1727.35657504 273.82169262 1727.35620561 C261.76425248 1727.35164077 249.70728408 1727.3874246 237.64997244 1727.44011835 C225.78858539 1727.49112418 213.92785857 1727.49823373 202.06641235 1727.46198176 C195.72286978 1727.44384263 189.38090113 1727.44472304 183.03752655 1727.49859819 C177.262374 1727.54727477 171.49001841 1727.54033982 165.7149073 1727.48967971 C163.64258547 1727.48113252 161.57005618 1727.49256581 159.4979999 1727.52682294 C145.36144182 1727.74565951 137.11976658 1725.11635515 126.62758757 1715.47957974 C124.22403467 1713.29459858 121.67872638 1711.31901908 119.125 1709.3125 C114.84322818 1705.76254526 110.68691611 1702.08856429 106.58203125 1698.3359375 C104.49716381 1696.44977906 102.38693257 1694.60869533 100.2578125 1692.7734375 C95.680885 1688.77511585 91.35654052 1684.54861595 87.0625 1680.25 C86.26835693 1679.45505127 85.47421387 1678.66010254 84.65600586 1677.84106445 C79.82335651 1672.95773861 75.2814875 1668.03246647 71.0546875 1662.61328125 C69.133328 1660.16957497 67.12629602 1657.82299555 65.08227539 1655.48168945 C49.378226 1637.39165811 36.0424042 1616.53089753 25.87646484 1594.85888672 C25.00563668 1593.01195479 24.10937728 1591.17936466 23.20703125 1589.34765625 C11.45835667 1565.24400712 4.7556508 1539.48829421 1 1513 C0.8954248 1512.26297852 0.79084961 1511.52595703 0.68310547 1510.76660156 C-0.36880187 1502.01638846 -0.24384601 1493.17500205 -0.25 1484.375 C-0.25067474 1483.50762207 -0.25134949 1482.64024414 -0.25204468 1481.74658203 C-0.23464523 1467.63188736 0.47410158 1453.91521995 3 1440 C3.1556543 1439.09604492 3.31130859 1438.19208984 3.47167969 1437.26074219 C10.98702281 1394.73380054 29.83721165 1356.06254665 56 1322 C57.30555939 1320.28451737 58.61022631 1318.5683552 59.9140625 1316.8515625 C62.60260436 1313.31480092 65.29741991 1309.78294128 67.99609375 1306.25390625 C71.86141763 1301.19206131 75.68584057 1296.10045805 79.5 1291 C85.36618958 1283.15749641 91.28719795 1275.35842621 97.23046875 1267.57421875 C101.65858237 1261.77096828 106.05241066 1255.94360846 110.42260742 1250.09667969 C115.26636931 1243.62530307 120.17374107 1237.2028242 125.078125 1230.77734375 C129.55779223 1224.90419225 134.00514162 1219.0083529 138.42626953 1213.09106445 C142.53894736 1207.59485589 146.70563615 1202.14077421 150.875 1196.6875 C156.02824097 1189.94549588 161.11428479 1183.16104315 166.125 1176.3125 C171.20954926 1169.3645749 176.43507193 1162.54514639 181.74829102 1155.77099609 C185.95029563 1150.39567017 190.03190054 1144.94230043 194.0625 1139.4375 C200.02103662 1131.29961499 206.10653674 1123.26961525 212.25341797 1115.2734375 C221.23457705 1103.58311693 230.14494742 1091.85022706 238.85131836 1079.95361328 C243.37017477 1073.80139661 248.03760565 1067.77693904 252.74829102 1061.77099609 C256.95029563 1056.39567017 261.03190054 1050.94230043 265.0625 1045.4375 C271.02103662 1037.29961499 277.10653674 1029.26961525 283.25341797 1021.2734375 C292.23457705 1009.58311693 301.14494742 997.85022706 309.85131836 985.95361328 C314.37017477 979.80139661 319.03760565 973.77693904 323.74829102 967.77099609 C327.95029563 962.39567017 332.03190054 956.94230043 336.0625 951.4375 C342.02103662 943.29961499 348.10653674 935.26961525 354.25341797 927.2734375 C363.23457705 915.58311693 372.14494742 903.85022706 380.85131836 891.95361328 C385.3680021 885.8043546 390.03276889 879.7824502 394.74169922 873.77978516 C399.63106136 867.52594986 404.34531408 861.15334545 409.03564453 854.74951172 C413.45346136 848.72295912 417.97284599 842.78923144 422.54785156 836.88085938 C430.86034215 826.11431138 439.09190502 815.28924466 447.125 804.3125 C452.20964208 797.36464018 457.43506931 790.54514972 462.74829102 783.77099609 C466.95029563 778.39567017 471.03190054 772.94230043 475.0625 767.4375 C481.02103662 759.29961499 487.10653674 751.26961525 493.25341797 743.2734375 C502.23457705 731.58311693 511.14494742 719.85022706 519.85131836 707.95361328 C524.37017477 701.80139661 529.03760565 695.77693904 533.74829102 689.77099609 C537.95029563 684.39567017 542.03190054 678.94230043 546.0625 673.4375 C552.02103662 665.29961499 558.10653674 657.26961525 564.25341797 649.2734375 C573.23457705 637.58311693 582.14494742 625.85022706 590.85131836 613.95361328 C595.37017477 607.80139661 600.03760565 601.77693904 604.74829102 595.77099609 C608.95029563 590.39567017 613.03190054 584.94230043 617.0625 579.4375 C623.02103662 571.29961499 629.10653674 563.26961525 635.25341797 555.2734375 C644.23457705 543.58311693 653.14494742 531.85022706 661.85131836 519.95361328 C666.37017477 513.80139661 671.03760565 507.77693904 675.74829102 501.77099609 C679.95029563 496.39567017 684.03190054 490.94230043 688.0625 485.4375 C694.02103662 477.29961499 700.10653674 469.26961525 706.25341797 461.2734375 C715.22495986 449.59563515 724.1297657 437.87788438 732.82275391 425.9909668 C737.63857506 419.43105618 742.61151478 413.00114094 747.64697266 406.60864258 C748.20304199 405.90118896 748.75911133 405.19373535 749.33203125 404.46484375 C749.82421143 403.842146 750.3163916 403.21944824 750.82348633 402.57788086 C752.07606762 400.99463694 752.07606762 400.99463694 753 399 C752.23043645 399.00075944 751.46087291 399.00151888 750.66798925 399.00230134 C704.97282872 399.04713868 659.2776706 399.08141404 613.58249244 399.10213066 C608.08559388 399.10463182 602.58869537 399.10722049 597.09179688 399.10986328 C595.99754609 399.1103879 594.9032953 399.11091252 593.7758854 399.11145304 C576.09967563 399.12013588 558.42347897 399.13589408 540.74727696 399.15430559 C522.58560259 399.17306383 504.42393504 399.1841292 486.26225138 399.18817699 C475.07177573 399.1909098 463.88133718 399.19951483 452.69087297 399.21583293 C444.9984279 399.22647308 437.30600177 399.22958487 429.61354989 399.22700275 C425.18736888 399.22573231 420.76125231 399.22756331 416.33508301 399.23841095 C392.78781829 399.29323575 369.45758113 398.84606959 346.1875 394.8125 C344.30913452 394.48995239 344.30913452 394.48995239 342.39282227 394.16088867 C305.94806052 387.65494449 270.8125526 375.11443121 238.00292969 358.03613281 C235.86715343 356.93127732 233.71939851 355.85215439 231.5703125 354.7734375 C203.63973276 340.59979806 177.98590122 322.05325346 154 302 C153.44666992 301.53835449 152.89333984 301.07670898 152.32324219 300.60107422 C145.32062465 294.74107042 138.6021349 288.76810507 132.22265625 282.22265625 C130.23976451 280.23976451 128.20973117 278.42520391 126.0625 276.625 C121.10274861 272.3709447 116.83794771 267.48239005 112.47949219 262.63232422 C110.98301897 260.98126483 109.46807233 259.34948263 107.9453125 257.72265625 C101.67744261 251.02530274 95.69710692 244.19634558 90 237 C89.50838379 236.3915625 89.01676758 235.783125 88.51025391 235.15625 C74.51857485 217.83684311 62.0600462 199.32282453 51 180 C50.62246582 179.3503125 50.24493164 178.700625 49.85595703 178.03125 C37.99740495 157.57778982 28.07364008 136.21544238 20 114 C19.68724121 113.1455127 19.37448242 112.29102539 19.05224609 111.41064453 C9.85501278 85.97722866 4.48083942 59.75749949 1 33 C0.88366211 32.14164551 0.76732422 31.28329102 0.64746094 30.39892578 C-0.5085594 20.26260108 0 10.26808402 0 0 Z " fill="#3BABE8" transform="translate(1127,1127)"/>
<path d="M0 0 C120.45 0 240.9 0 365 0 C365 570.24 365 1140.48 365 1728 C246.86 1728 128.72 1728 7 1728 C6.67 1700.61 6.34 1673.22 6 1645 C-1.92 1651.435 -1.92 1651.435 -10 1658 C-12.9635837 1660.25279589 -15.90784162 1662.47090548 -18.9375 1664.625 C-19.68290039 1665.15802734 -20.42830078 1665.69105469 -21.19628906 1666.24023438 C-94.6255969 1718.33137557 -179.75813198 1746.07929577 -406.75 1743.6875 C-496.56064635 1727.77514042 -583.03459114 1691.26605098 -653 1632 C-654.06605475 1631.10765282 -655.13248115 1630.21574952 -656.19921875 1629.32421875 C-662.06089038 1624.41059542 -667.83608664 1619.42058885 -673.48828125 1614.265625 C-674.84254709 1613.04404772 -676.20281147 1611.82835686 -677.5949707 1610.65014648 C-683.97099118 1605.2197187 -689.84714336 1599.30411079 -695.75463867 1593.37573242 C-697.55862085 1591.56639067 -699.36788665 1589.76245681 -701.17773438 1587.95898438 C-706.99912764 1582.14129805 -712.68740589 1576.29227129 -718 1570 C-719.04460847 1568.8079059 -720.09148803 1567.6177981 -721.140625 1566.4296875 C-728.38570186 1558.1652144 -735.32101023 1549.72711826 -742 1541 C-742.46196777 1540.40171387 -742.92393555 1539.80342773 -743.39990234 1539.18701172 C-794.06815395 1473.47635151 -829.05141597 1397.64801087 -848 1317 C-848.15190796 1316.35347473 -848.30381592 1315.70694946 -848.46032715 1315.04083252 C-860.82176252 1262.16645541 -866.4321226 1208.12786269 -866.26074219 1153.86376953 C-866.24934872 1150.22772897 -866.25615498 1146.59198141 -866.26761246 1142.95595074 C-866.3408159 1115.57734675 -864.9625766 1088.39245002 -861.75 1061.1875 C-861.64328979 1060.26909332 -861.53657959 1059.35068665 -861.42663574 1058.40444946 C-856.64800515 1017.54890509 -848.54359488 977.2077973 -836 938 C-835.66033203 936.91960449 -835.32066406 935.83920898 -834.97070312 934.72607422 C-809.55411907 854.18106134 -766.08100726 780.41381528 -708.53955078 718.65722656 C-706.83021302 716.81723533 -705.13215788 714.96712673 -703.43359375 713.1171875 C-696.12373443 705.19320538 -688.62635846 697.64584581 -680.6015625 690.44873047 C-678.94741956 688.95243714 -677.31519048 687.43516086 -675.6875 685.91015625 C-669.00292589 679.65056169 -662.14692683 673.73243089 -655 668 C-653.74870749 666.97031869 -652.49879654 665.938957 -651.25 664.90625 C-650.57880127 664.35380615 -649.90760254 663.8013623 -649.21606445 663.23217773 C-647.92825738 662.1722051 -646.6426675 661.10952837 -645.36010742 660.04321289 C-578.49739854 605.28683161 -495.55175189 571.21500752 -306.82714844 546.81469727 C-303.16589481 546.81252427 -299.50495017 546.79433635 -295.84375 546.77539062 C-273.98431286 546.72285007 -252.19174611 547.91498484 -230.5 550.6875 C-229.19434082 550.85411133 -227.88868164 551.02072266 -226.54345703 551.19238281 C-147.09392772 561.68571687 -68.5102621 591.57660054 -5 641 C-3.68 641.99 -2.36 642.98 -1 644 C-0.505 325.22 -0.505 325.22 0 0 Z M-349 900 C-350.09199707 900.50466797 -350.09199707 900.50466797 -351.20605469 901.01953125 C-372.27252243 910.8616595 -390.99318305 924.18334704 -408 940 C-409.32954696 941.15022463 -410.66276807 942.29621889 -412 943.4375 C-419.62570473 950.11190957 -426.4762923 957.31363886 -432.79296875 965.234375 C-434.22992777 967.03502453 -435.68997543 968.81756514 -437.17578125 970.578125 C-478.2859566 1019.35538456 -496.75220396 1083.12926681 -496.39111328 1146.23217773 C-496.37498303 1149.56600706 -496.39111576 1152.89862783 -496.41015625 1156.23242188 C-496.42924089 1175.51612203 -494.71299779 1194.66599608 -490.75 1213.5625 C-490.43421997 1215.08907227 -490.43421997 1215.08907227 -490.11206055 1216.64648438 C-481.48725443 1256.94316758 -464.49667538 1294.57488023 -439 1327 C-438.3296875 1327.86367187 -437.659375 1328.72734375 -436.96875 1329.6171875 C-432.37239497 1335.39693244 -427.46694207 1340.84630278 -422.4375 1346.25 C-421.82438965 1346.91161133 -421.2112793 1347.57322266 -420.57958984 1348.25488281 C-416.29343831 1352.80927552 -411.77720228 1356.96690839 -407 1361 C-406.37649658 1361.52964355 -405.75299316 1362.05928711 -405.1105957 1362.60498047 C-351.76959167 1407.54357154 -283.5017357 1427.54082907 -214.16455078 1422.27734375 C-158.92072119 1417.43573054 -108.75263363 1400.3078459 -67 1363 C-66.42830078 1362.49146484 -65.85660156 1361.98292969 -65.26757812 1361.45898438 C-58.05619355 1355.01703243 -51.23775353 1348.4086629 -45 1341 C-44.34596191 1340.23042969 -44.34596191 1340.23042969 -43.67871094 1339.4453125 C-9.07034798 1298.4636235 12.28008905 1248.11617862 19 1195 C19.08613556 1194.32282928 19.17227112 1193.64565857 19.26101685 1192.94796753 C21.03076707 1178.60722513 21.36242732 1164.37557427 21.3125 1149.9375 C21.31034485 1148.81382019 21.3081897 1147.69014038 21.30596924 1146.53240967 C21.25466793 1129.85177553 20.90971326 1113.46762853 18 1097 C17.69400879 1095.25251465 17.69400879 1095.25251465 17.38183594 1093.46972656 C6.62134271 1033.93459593 -22.00540003 972.61843317 -70.23828125 934.20703125 C-72.03008677 932.77510746 -73.80015413 931.31538272 -75.54296875 929.82421875 C-88.11947988 919.11230383 -102.48167696 910.78607995 -117 903 C-117.62664551 902.6587207 -118.25329102 902.31744141 -118.89892578 901.96582031 C-187.4968117 864.85228638 -279.35951969 867.6250416 -349 900 Z " fill="#29A3E6" transform="translate(3950,1127)"/>
<path d="M0 0 C1.41615551 1.22975555 2.83273869 2.45901902 4.25 3.6875 C5.50030278 4.7913238 6.75030022 5.89549356 8 7 C9.02480469 7.88558594 9.02480469 7.88558594 10.0703125 8.7890625 C15.99790949 13.99329172 21.60170384 19.49541008 27.1875 25.0625 C27.94788574 25.81829346 28.70827148 26.57408691 29.49169922 27.3527832 C34.19995148 32.07387149 38.6625887 36.9380341 43 42 C43.96110532 43.09474684 44.92329254 44.18854509 45.88671875 45.28125 C53.38560428 53.86463044 60.30748542 62.77759059 67 72 C67.53850586 72.73395996 68.07701172 73.46791992 68.63183594 74.22412109 C115.97945053 138.97122394 143.59197 216.20862662 150 296 C150.13243556 297.62269417 150.13243556 297.62269417 150.26754659 299.27817005 C151.25460339 313.39529772 151.13888987 327.52325401 151.12226619 341.66726191 C151.11879787 345.57676354 151.12120922 349.48626255 151.12284368 353.39576477 C151.12490755 360.23357363 151.12329061 367.07137375 151.11920547 373.90918159 C151.11314807 384.07660926 151.11287174 394.24403146 151.11374746 404.41146059 C151.11505873 421.51814481 151.11172998 438.62482516 151.10573006 455.73150826 C151.09980714 472.66214581 151.09596292 489.59278175 151.09487724 506.52342033 C151.0948085 507.57726166 151.09473976 508.63110298 151.09466894 509.7168789 C151.09433059 515.06910078 151.09402922 520.42132266 151.09374207 525.77354454 C151.09164328 563.65461347 151.08491046 601.5356803 151.07543945 639.41674805 C151.0662508 676.21101877 151.05918617 713.00528891 151.05493164 749.79956055 C151.054661 752.11447352 151.05439029 754.4293865 151.05411953 756.74429947 C151.05193066 775.55481803 151.04988812 794.3653366 151.04788104 813.17585518 C151.038499 900.11723878 151.01842716 987.05861689 151 1074 C30.55 1074 -89.9 1074 -214 1074 C-214.03738281 1025.50289062 -214.07476563 977.00578125 -214.11328125 927.0390625 C-214.14174291 898.18266526 -214.17040789 869.32627107 -214.20281637 840.46987844 C-214.22181223 823.54244041 -214.24066956 806.61500224 -214.2590997 789.68756358 C-214.26132916 787.64022244 -214.26356298 785.5928813 -214.26580121 783.54554017 C-214.30140616 750.9442093 -214.32742117 718.34287952 -214.34838969 685.74153622 C-214.37000304 652.21707146 -214.40139913 618.6926296 -214.44499113 585.16818588 C-214.45115279 580.42607235 -214.45720337 575.68395869 -214.46318626 570.94184494 C-214.46436715 570.00858821 -214.46554803 569.07533149 -214.46676469 568.11379425 C-214.48543914 553.13001873 -214.49389252 538.14625428 -214.49846124 523.16246854 C-214.50328196 508.07504319 -214.51901923 492.98765979 -214.54566566 477.90025695 C-214.56114428 468.95190713 -214.568487 460.0036402 -214.56376929 451.05527776 C-214.56143657 445.05735485 -214.57013408 439.05950954 -214.58732411 433.06161108 C-214.59677969 429.65712057 -214.60019898 426.2529416 -214.59339563 422.84842439 C-214.55510028 401.49190079 -215.34639313 379.84202746 -220.75 359.0625 C-221.00604004 358.04293213 -221.26208008 357.02336426 -221.52587891 355.97290039 C-225.54578425 340.48330129 -231.38478191 326.05441515 -239 312 C-239.57621094 310.93136719 -240.15242188 309.86273437 -240.74609375 308.76171875 C-252.93071603 287.06577468 -271.19638585 267.01020823 -291 252 C-291.51997559 251.60361328 -292.03995117 251.20722656 -292.57568359 250.79882812 C-323.10447769 227.70180007 -360.81360225 214.00855939 -399.2578125 213.796875 C-400.11524048 213.78981537 -400.97266846 213.78275574 -401.8560791 213.77548218 C-428.57066015 213.52968259 -428.57066015 213.52968259 -455 217 C-455.94294922 217.18804199 -456.88589844 217.37608398 -457.85742188 217.56982422 C-494.2291739 225.0845008 -526.56012064 242.25066014 -554 267 C-554.74894531 267.67546875 -555.49789062 268.3509375 -556.26953125 269.046875 C-562.57458378 275.05657884 -567.82777084 282.01749064 -573 289 C-573.41507813 289.56009766 -573.83015625 290.12019531 -574.2578125 290.69726562 C-599.98134046 326.00488222 -612.18094204 368.60402307 -612.1386652 412.00268173 C-612.14292853 413.73039672 -612.14292853 413.73039672 -612.14727798 415.49301505 C-612.1555765 419.33891762 -612.15688937 423.18478987 -612.15821838 427.03070068 C-612.16223974 429.82117473 -612.16774615 432.61164541 -612.17318195 435.40211701 C-612.18420321 441.46190789 -612.19159669 447.52169465 -612.19658089 453.58149338 C-612.20400874 462.59211483 -612.21709686 471.60272192 -612.23132664 480.61333488 C-612.25510692 495.77249015 -612.27432379 510.93164798 -612.29092598 526.09081268 C-612.30737553 541.0969452 -612.32586186 556.10307294 -612.34705925 571.10919952 C-612.34837686 572.04277238 -612.34969446 572.97634523 -612.351052 573.93820817 C-612.35775423 578.67949098 -612.36449276 583.42077374 -612.37124526 588.16205648 C-612.41898876 621.73107989 -612.46217939 655.30010776 -612.50268555 688.86914062 C-612.54204338 721.47786789 -612.58348445 754.08659143 -612.62768555 786.6953125 C-612.63046289 788.74640449 -612.63324016 790.79749648 -612.63601738 792.84858847 C-612.65859512 809.51498338 -612.68131652 826.1813781 -612.70407274 842.84777278 C-612.80917392 919.89850777 -612.90377869 996.94925236 -613 1074 C-733.45 1074 -853.9 1074 -978 1074 C-978 692.19 -978 310.38 -978 -83 C-857.55 -83 -737.1 -83 -613 -83 C-612.67 -53.96 -612.34 -24.92 -612 5 C-607.71 1.37 -603.42 -2.26 -599 -6 C-595.72765475 -8.56042281 -592.45868342 -11.08715133 -589.125 -13.5625 C-587.84012695 -14.51926636 -587.84012695 -14.51926636 -586.52929688 -15.49536133 C-516.17679552 -67.53072991 -432.45648106 -95.73243486 -346 -105 C-344.37892334 -105.18006592 -344.37892334 -105.18006592 -342.72509766 -105.36376953 C-247.29603755 -115.51322259 -148.67176749 -97.84108648 0 0 Z " fill="#29A3E6" transform="translate(5453,1781)"/>
<path d="M0 0 C129.69 0 259.38 0 393 0 C395.4845851 6.21146274 397.87049596 12.3190963 399.9609375 18.65234375 C400.2271994 19.45117981 400.4934613 20.25001587 400.76779175 21.07305908 C401.64006251 23.69348788 402.50768919 26.31542575 403.375 28.9375 C404.00347547 30.83051997 404.63205857 32.72350422 405.26074219 34.61645508 C409.57774968 47.63126459 413.83579029 60.66491942 418.06768799 73.70761108 C424.5687954 93.74138198 431.16052457 113.74517092 437.75 133.75 C440.03414625 140.68479966 442.31806499 147.6196742 444.6015625 154.5546875 C444.88042423 155.40159086 445.15928596 156.24849422 445.44659805 157.12106133 C450.35640636 172.0334923 455.24742043 186.95199329 460.125 201.875 C467.01896354 222.9658241 473.94202955 244.04697495 480.875 265.125 C488.32242961 287.76758635 495.76379695 310.41212216 503.1875 333.0625 C503.59144989 334.29497467 503.99539978 335.52744934 504.41159058 336.79727173 C506.04029664 341.76662776 507.66898597 346.73598928 509.29762268 351.70536804 C513.78768481 365.40485231 518.28228607 379.10284658 522.77731705 392.80070114 C523.43695086 394.8108266 524.09657442 396.82095543 524.75619507 398.83108521 C526.51636499 404.19502161 528.27655337 409.55895196 530.03678894 414.92286682 C533.10933868 424.28575929 536.1816974 433.64871442 539.25390625 443.01171875 C539.57857533 444.00119475 539.57857533 444.00119475 539.90980339 445.01066017 C541.00270731 448.34144631 542.09560794 451.67223353 543.18850708 455.00302124 C545.15688169 461.00195736 547.12528555 467.00088388 549.09368706 472.99981117 C550.18745922 476.33320706 551.28122952 479.66660356 552.375 483 C552.81249999 484.33333334 553.24999999 485.66666667 553.6875 487 C556.31250208 495.00000635 556.31250208 495.00000635 556.96874809 496.99999428 C557.40625438 498.33334671 557.84376074 499.66669912 558.28126717 501.0000515 C559.37492158 504.33309245 560.46857474 507.66613382 561.56222534 510.99917603 C563.53211544 517.0026678 565.50201433 523.00615669 567.47196007 529.0096302 C568.56725041 532.34756394 569.6625334 535.68550008 570.7578125 539.0234375 C570.97461796 539.68416637 571.19142342 540.34489525 571.41479874 541.02564621 C574.45437924 550.28901615 577.49355188 559.55251982 580.53245926 568.81611061 C589.96752539 597.57711079 599.4073807 626.33653389 608.85492706 655.09343719 C609.61873 657.41841445 610.38246377 659.74341441 611.1461792 662.06842041 C612.34503952 665.7181033 613.54410811 669.36771771 614.74333954 673.01727867 C615.18306601 674.35556635 615.6227299 675.69387459 616.06232452 677.03220558 C618.35979852 684.02657279 620.66529574 691.0179659 623 698 C627.20492058 688.1873729 630.44470916 678.01916106 633.8359375 667.90625 C634.50997142 665.90295416 635.1842372 663.89973632 635.85871887 661.89659119 C637.66121126 656.54081349 639.4600528 651.1838163 641.25811386 645.82654953 C642.75285524 641.37459058 644.24982101 636.92338092 645.746768 632.4721632 C652.71576467 611.74855466 659.67057974 591.020222 666.58203125 570.27734375 C666.82847885 569.53772526 667.07492645 568.79810677 667.32884216 568.03607559 C669.7641558 560.72613463 672.19556804 553.41491989 674.62060547 546.1015625 C679.23485505 532.20034373 683.92965769 518.32925293 688.67578125 504.47265625 C693.65983712 489.91933999 698.58010224 475.34608486 703.4375 460.75 C703.74784494 459.81752504 704.05818989 458.88505009 704.37793922 457.92431831 C706.58748118 451.28360563 708.79407721 444.64191563 711 438 C713.51881143 430.4159934 716.03892391 422.83242266 718.5625 415.25 C718.87322952 414.31629074 719.18395905 413.38258148 719.50410461 412.420578 C724.23442316 398.21472373 729.04469138 384.03765482 733.8992157 369.87382507 C738.39991213 356.73800252 742.83444975 343.58137545 747.21875 330.40625 C747.51857788 329.50532623 747.81840576 328.60440247 748.12731934 327.67617798 C750.25374047 321.28484725 752.37720961 314.89253739 754.5 308.5 C756.92505095 301.19723993 759.35141734 293.89492063 761.78125 286.59375 C762.08107285 285.69276077 762.38089569 284.79177155 762.68980408 283.86347961 C767.34856271 269.87201101 772.0896232 255.91007511 776.87051392 241.95993042 C781.38060272 228.79535114 785.82490271 215.6100773 790.21875 202.40625 C790.51853256 201.50546219 790.81831512 200.60467438 791.12718201 199.67658997 C793.2536489 193.2851219 795.37716399 186.89267477 797.5 180.5 C799.92505095 173.19723992 802.35144359 165.89492938 804.78125 158.59375 C805.08146749 157.69153528 805.38168499 156.78932056 805.69099998 155.85976601 C810.04088221 142.79524412 814.45969148 129.75568077 818.92578125 116.73046875 C823.97002257 102.01905809 828.92644748 87.28034907 833.82421875 72.51953125 C834.14865589 71.54229473 834.47309303 70.56505821 834.8073616 69.55820847 C837.78428542 60.59107979 840.75813995 51.62293853 843.7253418 42.65258789 C845.37805578 37.65682896 847.03514711 32.66254019 848.69504738 27.66916466 C849.31667424 25.79628375 849.93664145 23.92285106 850.55484581 22.04883766 C851.40833061 19.46191326 852.26737059 16.87689588 853.12768555 14.29223633 C853.4992981 13.15886337 853.4992981 13.15886337 853.87841797 12.00259399 C854.11473434 11.2963237 854.35105072 10.59005341 854.5945282 9.86238098 C854.89495041 8.95501804 854.89495041 8.95501804 855.20144176 8.02932453 C856.28563609 5.27413143 857.67587264 2.64825472 859 0 C988.69 0 1118.38 0 1252 0 C1250.19186209 5.42441373 1248.48344628 10.44963296 1246.234375 15.63671875 C1245.96892883 16.25233673 1245.70348267 16.86795471 1245.42999268 17.50222778 C1244.84862237 18.84962946 1244.26561704 20.19632661 1243.68115234 21.54238892 C1242.00333955 25.40759405 1240.33894331 29.27858931 1238.671875 33.1484375 C1238.121828 34.42383141 1238.121828 34.42383141 1237.56066895 35.72499084 C1232.66988948 47.07159662 1227.83811776 58.44336933 1223 69.8125 C1222.01209243 72.13307714 1221.02413625 74.45363359 1220.03613281 76.77416992 C1218.02521475 81.49732099 1216.01448799 86.22055342 1214.00390625 90.94384766 C1209.64733447 101.17795062 1205.28832971 111.41101722 1200.92944336 121.64413452 C1198.53618973 127.26271127 1196.14310357 132.88135934 1193.75 138.5 C1192.79166746 140.75000034 1191.83333413 143.00000034 1190.875 145.25 C1190.1634375 146.920625 1190.1634375 146.920625 1189.4375 148.625 C1162.12500001 212.74999997 1162.12500001 212.74999997 1160.68762207 216.12471008 C1159.72887865 218.37567511 1158.77013841 220.62664151 1157.81140137 222.87760925 C1155.42186852 228.48785539 1153.03228099 234.09807823 1150.64257812 239.70825195 C1146.25481874 250.00930659 1141.86753727 260.31056381 1137.48217773 270.61264038 C1119.25201938 313.43873487 1119.25201938 313.43873487 1110.63427734 333.51702881 C1101.71253304 354.30676496 1092.86470256 375.12808526 1084.00390625 395.94384766 C1079.64733447 406.17795062 1075.28832971 416.41101722 1070.92944336 426.64413452 C1068.53618973 432.26271127 1066.14310357 437.88135934 1063.75 443.5 C1062.79166746 445.75000034 1061.83333413 448.00000034 1060.875 450.25 C1060.400625 451.36375 1059.92625 452.4775 1059.4375 453.625 C1032.12499998 517.75000005 1032.12499998 517.75000005 1030.68762207 521.12471008 C1029.72887865 523.37567511 1028.77013841 525.62664151 1027.81140137 527.87760925 C1025.42186852 533.48785539 1023.03228099 539.09807823 1020.64257812 544.70825195 C1016.25481874 555.00930659 1011.86753727 565.31056381 1007.48217773 575.61264038 C989.25201938 618.43873487 989.25201938 618.43873487 980.63427734 638.51702881 C971.71253304 659.30676496 962.86470256 680.12808526 954.00390625 700.94384766 C949.64733447 711.17795062 945.28832971 721.41101722 940.92944336 731.64413452 C938.53618973 737.26271127 936.14310357 742.88135934 933.75 748.5 C932.79166746 750.75000034 931.83333413 753.00000034 930.875 755.25 C930.1634375 756.920625 930.1634375 756.920625 929.4375 758.625 C902.12499999 822.75000002 902.12499999 822.75000002 900.68762207 826.12471008 C899.72887865 828.37567511 898.77013841 830.62664151 897.81140137 832.87760925 C895.42186852 838.48785539 893.03228099 844.09807823 890.64257812 849.70825195 C886.25481874 860.00930659 881.86753727 870.31056381 877.48217773 880.61264038 C859.25201938 923.43873487 859.25201938 923.43873487 850.63427734 943.51702881 C841.71253304 964.30676496 832.86470256 985.12808526 824.00390625 1005.94384766 C819.64733447 1016.17795062 815.28832971 1026.41101722 810.92944336 1036.64413452 C808.53618973 1042.26271127 806.14310357 1047.88135934 803.75 1053.5 C802.79166746 1055.75000034 801.83333413 1058.00000034 800.875 1060.25 C800.1634375 1061.920625 800.1634375 1061.920625 799.4375 1063.625 C798 1067 796.5625 1070.375 795.125 1073.75 C794.41346771 1075.42055702 794.41346771 1075.42055702 793.68756104 1077.12486267 C792.72902999 1079.37532288 791.77049321 1081.62578064 790.81195068 1083.87623596 C788.41909528 1089.49417475 786.026339 1095.11215572 783.63378906 1100.73022461 C779.28587522 1110.93951097 774.93718321 1121.1484627 770.58488464 1131.35588074 C760.73654647 1154.45327333 750.90443815 1177.55702746 741.15026855 1200.69436646 C735.12946933 1214.97545492 729.07477045 1229.24178953 723 1243.5 C716.47219776 1258.82168688 709.97062259 1274.15407715 703.5 1289.5 C697.02937733 1304.84592304 690.52775975 1320.17829489 684 1335.5 C677.00937184 1351.90830088 670.05127181 1368.32995751 663.12060547 1384.76367188 C657.60086358 1397.85120468 652.06161691 1410.93020838 646.5 1424 C640.47600573 1438.15658926 634.47953897 1452.32457718 628.5 1466.5 C622.17568603 1481.49276534 615.82930848 1496.47587533 609.45800781 1511.44873047 C603.37833168 1525.73795992 597.33307575 1540.04153893 591.29803467 1554.34967041 C584.9667887 1569.35894247 578.60952035 1584.35693502 572.22070312 1599.34179688 C565.75088544 1614.53556195 559.38679393 1629.76995295 553 1645 C429.25 1645 305.5 1645 178 1645 C179.5193432 1640.44197039 181.11429028 1636.44138128 183.16796875 1632.13671875 C183.47921692 1631.48086288 183.79046509 1630.82500702 184.11114502 1630.14927673 C184.78262216 1628.73447898 185.45548851 1627.32033988 186.12960815 1625.90679932 C187.95439876 1622.07866077 189.76704682 1618.24479752 191.578125 1614.41015625 C191.9500145 1613.6228009 192.32190399 1612.83544556 192.70506287 1612.02423096 C196.36330213 1604.26073553 199.90803852 1596.44765895 203.4375 1588.625 C208.74000839 1576.88236828 214.16869147 1565.20502092 219.6875 1553.5625 C225.97852933 1540.28949782 232.19596748 1526.98647699 238.32714844 1513.63867188 C241.72977709 1506.23406752 245.14761144 1498.83645548 248.5625 1491.4375 C248.94301514 1490.6129129 249.32353027 1489.78832581 249.71557617 1488.93875122 C257.99297897 1471.00213093 266.29892859 1453.07878166 274.60888672 1435.15722656 C278.17882738 1427.45789731 281.74677514 1419.75764456 285.31488037 1412.0574646 C286.49776384 1409.50482558 287.68074998 1406.95223416 288.86376953 1404.3996582 C292.47378022 1396.6103043 296.08329901 1388.82072385 299.69081116 1381.0302124 C301.73110209 1376.62418227 303.77170414 1372.21829628 305.8125 1367.8125 C306.2120993 1366.94981506 306.61169861 1366.08713013 307.02340698 1365.19830322 C312.01874281 1354.41554722 317.02953447 1343.64023912 322.0625 1332.875 C328.07686245 1320.0086544 334.03202319 1307.1153807 339.97900391 1294.21777344 C345.4525695 1282.34766018 350.93978176 1270.48394578 356.4375 1258.625 C356.83069427 1257.77682709 357.22388855 1256.92865417 357.6289978 1256.05477905 C359.62211212 1251.75551049 361.61544634 1247.45634394 363.60888672 1243.15722656 C367.17836205 1235.4589009 370.7458596 1227.75965871 374.31350708 1220.06048584 C376.29225711 1215.79028638 378.27113502 1211.52014619 380.25 1207.25 C381.04166728 1205.54166695 381.83333395 1203.83333362 382.625 1202.125 C384.20833333 1198.70833333 385.79166667 1195.29166667 387.375 1191.875 C387.76686493 1191.02939514 388.15872986 1190.18379028 388.56246948 1189.31256104 C389.35423297 1187.60402198 390.14600137 1185.8954852 390.93777466 1184.18695068 C392.91550011 1179.9192835 394.89314069 1175.65157703 396.87060547 1171.38378906 C403.25196213 1157.61185916 403.25196213 1157.61185916 406.40722656 1150.81054688 C407.00432938 1149.52343811 407.00432938 1149.52343811 407.61349487 1148.21032715 C408.4179301 1146.47659582 409.22255652 1144.7429532 410.02737427 1143.00939941 C412.01337441 1138.7303744 413.99506645 1134.44945871 415.96728516 1130.1640625 C419.51962795 1122.45289071 423.09711923 1114.75953323 426.81130981 1107.12469482 C428.45817347 1103.73289599 430.08331198 1100.33091757 431.70623779 1096.9276123 C432.47647907 1095.32775974 433.25722953 1093.73291817 434.0491333 1092.14367676 C439.07076835 1083.20853303 439.07076835 1083.20853303 439.36328125 1073.5078125 C438.60253469 1071.99135267 437.8099103 1070.49078203 437 1069 C436.25862644 1067.16792254 435.5192706 1065.3348979 434.8039093 1063.49250793 C433.96254007 1061.33234874 433.0941266 1059.18491024 432.2175293 1057.03881836 C431.75339127 1055.90233353 431.75339127 1055.90233353 431.27987671 1054.7428894 C430.80102524 1053.57078415 430.80102524 1053.57078415 430.3125 1052.375 C429.64280098 1050.729974 428.97329 1049.08487144 428.30395508 1047.43969727 C422.28843742 1032.66506478 416.22986973 1017.90799142 410.16796875 1003.15234375 C405.76712797 992.43960415 401.38317664 981.7199763 397 971 C391.29929654 957.05936459 385.59273648 943.12115851 379.875 929.1875 C379.54788025 928.39032562 379.2207605 927.59315125 378.88372803 926.77182007 C376.58947781 921.18107965 374.29479269 915.59051777 372 910 C369.37469345 903.60429245 366.74959275 897.20850051 364.125 890.8125 C363.79804138 890.01572845 363.47108276 889.21895691 363.13421631 888.39804077 C357.36505974 874.33786908 351.60966394 860.27208809 345.85705566 846.20513916 C340.53696746 833.19627442 335.21063073 820.18999789 329.875 807.1875 C329.54788025 806.39032562 329.2207605 805.59315125 328.88372803 804.77182007 C326.58947781 799.18107965 324.29479269 793.59051777 322 788 C319.37469345 781.60429245 316.74959275 775.20850051 314.125 768.8125 C313.79804138 768.01572845 313.47108276 767.21895691 313.13421631 766.39804077 C307.36505974 752.33786908 301.60966394 738.27208809 295.85705566 724.20513916 C290.53696746 711.19627442 285.21063073 698.18999789 279.875 685.1875 C279.54788025 684.39032562 279.2207605 683.59315125 278.88372803 682.77182007 C276.58947781 677.18107965 274.29479269 671.59051777 272 666 C269.37469345 659.60429245 266.74959275 653.20850051 264.125 646.8125 C263.79804138 646.01572845 263.47108276 645.21895691 263.13421631 644.39804077 C257.36505974 630.33786908 251.60966394 616.27208809 245.85705566 602.20513916 C240.53696746 589.19627442 235.21063073 576.18999789 229.875 563.1875 C229.54788025 562.39032562 229.2207605 561.59315125 228.88372803 560.77182007 C226.58947781 555.18107965 224.29479269 549.59051777 222 544 C219.37469345 537.60429245 216.74959275 531.20850051 214.125 524.8125 C213.79804138 524.01572845 213.47108276 523.21895691 213.13421631 522.39804077 C207.36505974 508.33786908 201.60966394 494.27208809 195.85705566 480.20513916 C190.53696746 467.19627442 185.21063073 454.18999789 179.875 441.1875 C179.54788025 440.39032562 179.2207605 439.59315125 178.88372803 438.77182007 C176.58947781 433.18107965 174.29479269 427.59051777 172 422 C169.37469345 415.60429245 166.74959275 409.20850051 164.125 402.8125 C163.79804138 402.01572845 163.47108276 401.21895691 163.13421631 400.39804077 C157.36505974 386.33786908 151.60966394 372.27208809 145.85705566 358.20513916 C140.53696746 345.19627442 135.21063073 332.18999789 129.875 319.1875 C129.54788025 318.39032562 129.2207605 317.59315125 128.88372803 316.77182007 C126.58947781 311.18107965 124.29479269 305.59051777 122 300 C119.37469345 293.60429245 116.74959275 287.20850051 114.125 280.8125 C113.79804138 280.01572845 113.47108276 279.21895691 113.13421631 278.39804077 C107.36505974 264.33786908 101.60966394 250.27208809 95.85705566 236.20513916 C90.53696746 223.19627442 85.21063073 210.18999789 79.875 197.1875 C79.54788025 196.39032562 79.2207605 195.59315125 78.88372803 194.77182007 C76.58947781 189.18107965 74.29479269 183.59051777 72 178 C69.37469345 171.60429245 66.74959275 165.20850051 64.125 158.8125 C63.79804138 158.01572845 63.47108276 157.21895691 63.13421631 156.39804077 C57.36505974 142.33786908 51.60966394 128.27208809 45.85705566 114.20513916 C40.53696738 101.19627423 35.21050411 88.19004997 29.875 75.1875 C29.55186829 74.39996338 29.22873657 73.61242676 28.89581299 72.80102539 C25.51657871 64.56534447 22.13591075 56.33025391 18.75314331 48.09602356 C17.30758075 44.57699187 15.86253186 41.05774935 14.4175415 37.53848267 C13.73660777 35.8804782 13.05542568 34.2225757 12.3739624 32.56478882 C10.24239284 27.37933466 8.11799704 22.1910117 6 17 C5.70291138 16.27393555 5.40582275 15.54787109 5.09973145 14.79980469 C4.24240479 12.70137887 3.38997915 10.60103192 2.5390625 8.5 C2.04873535 7.2934375 1.5584082 6.086875 1.05322266 4.84375 C0 2 0 2 0 0 Z " fill="#29A3E6" transform="translate(5623,1698)"/>
<path d="M0 0 C120.45 0 240.9 0 365 0 C365 381.81 365 763.62 365 1157 C244.55 1157 124.1 1157 0 1157 C0 775.19 0 393.38 0 0 Z " fill="#29A3E6" transform="translate(2630,1698)"/>
<path d="M0 0 C72.35721726 -0.13707748 144.71445011 -0.26427859 217.07176208 -0.33874512 C218.67741328 -0.3404018 218.67741328 -0.3404018 220.31550188 -0.34209196 C243.57735569 -0.36603366 266.83921087 -0.38819534 290.10106811 -0.40852264 C301.50821564 -0.41850157 312.91536279 -0.42887397 324.32250977 -0.43945312 C325.4576749 -0.4404992 326.59284003 -0.44154527 327.76240411 -0.44262304 C364.57490332 -0.47673083 401.38730447 -0.53683393 438.19974424 -0.61037777 C476.02050007 -0.68579901 513.84120161 -0.73507435 551.66203137 -0.75131992 C557.00053242 -0.75362525 562.33903328 -0.75623035 567.6775341 -0.75901794 C569.25361771 -0.75982702 569.25361771 -0.75982702 570.86154139 -0.76065244 C587.79435858 -0.77011648 604.72700819 -0.80724853 621.65975697 -0.85465627 C638.67138315 -0.90169697 655.68284272 -0.91975828 672.69453169 -0.90801102 C682.80908609 -0.90191342 692.92303205 -0.91826226 703.03747689 -0.96638034 C709.78845399 -0.99631089 716.53903125 -0.99735849 723.29003562 -0.97465451 C727.14049905 -0.96254 730.98980953 -0.96323561 734.84015078 -0.99906546 C738.98411648 -1.03733567 743.12542839 -1.01400729 747.26946354 -0.98438263 C748.47037698 -1.00539874 749.67129042 -1.02641485 750.90859517 -1.04806781 C758.81636452 -0.91942334 758.81636452 -0.91942334 762.2190381 1.72370249 C763.98936852 3.73459274 765.48456077 5.79434826 767 8 C768.10171287 9.18851346 769.22420631 10.35846122 770.37573147 11.4987793 C771.23787751 12.36391191 771.23787751 12.36391191 772.11744064 13.24652195 C773.02651982 14.15123187 773.02651982 14.15123187 773.95396423 15.07421875 C774.61739714 15.73850608 775.28083004 16.40279341 775.96436697 17.08721066 C778.16520674 19.28968406 780.36957646 21.48858855 782.57397461 23.6875 C784.16140877 25.27465181 785.74862221 26.86202441 787.33563232 28.44960022 C791.62829955 32.74255353 795.92403591 37.03242364 800.22034144 41.32173538 C804.7157919 45.8109209 809.2083975 50.30295162 813.7013092 54.79467773 C821.23749429 62.32811109 828.77542066 69.85979762 836.31469727 77.39013672 C844.07694298 85.14319022 851.83812788 92.89730315 859.59790039 100.65283203 C860.31650123 101.37103878 860.31650123 101.37103878 861.04961925 102.10375476 C863.45317752 104.50600791 865.85671508 106.90828178 868.26024234 109.31056595 C888.17028485 129.21025758 908.08398612 149.10628477 928 169 C927.04086559 170.44530213 926.08085918 171.89002561 925.1204834 173.33450317 C924.58597313 174.13909533 924.05146286 174.94368748 923.50075531 175.77266121 C921.87832788 178.18057909 920.18115096 180.50699186 918.40625 182.8046875 C917.7757373 183.62541748 917.14522461 184.44614746 916.49560547 185.29174805 C915.83705566 186.14422119 915.17850586 186.99669434 914.5 187.875 C909.21518028 194.75867578 903.9956356 201.68085101 898.875 208.6875 C893.79026593 215.63654058 888.56424724 222.45695181 883.24951172 229.23120117 C879.06528749 234.58264061 875.00810819 240.01569125 871 245.5 C866.43317192 251.74880717 861.77739376 257.91065529 857 264 C852.27035846 270.03085241 847.65137607 276.12760445 843.125 282.3125 C834.89705255 293.55343354 826.42672774 304.60527908 817.95898438 315.66601562 C810.26062803 325.7262838 802.62940172 335.82461521 795.14794922 346.04736328 C790.63310278 352.19417467 785.97105089 358.21437347 781.26269531 364.21362305 C776.36630584 370.47432093 771.63816292 376.84979446 766.96875 383.28125 C765.92052164 384.71939905 764.85832815 386.14751284 763.77995062 387.56319547 C761.96272557 389.97530169 761.96272557 389.97530169 760.44333506 392.58553767 C757.75457096 396.66730883 755.68019757 399.50971448 750.87323284 400.91239786 C746.95952958 401.25168414 743.11155626 401.26935907 739.1907959 401.17803955 C737.67893403 401.17970317 736.16707172 401.18576659 734.65524244 401.19583297 C730.51141039 401.21071527 726.37029737 401.16326568 722.22692895 401.10543132 C717.75356411 401.05395045 713.280234 401.06046733 708.80662537 401.05979919 C700.04272552 401.04944605 691.27997048 400.9860234 682.51646805 400.90528223 C672.29362741 400.81338752 662.0708113 400.77672602 651.84764069 400.74293873 C633.58511146 400.68094922 615.32315283 400.57281104 597.06103516 400.43701172 C579.38239318 400.30562513 561.70388541 400.2002903 544.02490234 400.12744141 C542.93837244 400.12295798 541.85184254 400.11847456 540.73238748 400.11385527 C536.36357636 400.0958962 531.99476492 400.0780175 527.62595293 400.06027038 C508.69403145 399.98272378 489.76221142 399.88396254 470.83040833 399.7819165 C467.78088623 399.76562306 464.73136205 399.74978022 461.68183708 399.73403263 C450.97823468 399.67824484 440.27472795 399.61570379 429.57127452 399.53596494 C425.1491255 399.50302866 420.72700915 399.47264659 416.3047924 399.45036888 C392.79127562 399.32867812 369.42038136 398.83962148 346.1875 394.8125 C344.30913452 394.48995239 344.30913452 394.48995239 342.39282227 394.16088867 C305.94806052 387.65494449 270.8125526 375.11443121 238.00292969 358.03613281 C235.86715343 356.93127732 233.71939851 355.85215439 231.5703125 354.7734375 C203.63973276 340.59979806 177.98590122 322.05325346 154 302 C153.44666992 301.53835449 152.89333984 301.07670898 152.32324219 300.60107422 C145.32062465 294.74107042 138.6021349 288.76810507 132.22265625 282.22265625 C130.23976451 280.23976451 128.20973117 278.42520391 126.0625 276.625 C121.10274861 272.3709447 116.83794771 267.48239005 112.47949219 262.63232422 C110.98301897 260.98126483 109.46807233 259.34948263 107.9453125 257.72265625 C101.67744261 251.02530274 95.69710692 244.19634558 90 237 C89.50838379 236.3915625 89.01676758 235.783125 88.51025391 235.15625 C74.51857485 217.83684311 62.0600462 199.32282453 51 180 C50.62246582 179.3503125 50.24493164 178.700625 49.85595703 178.03125 C37.99740495 157.57778982 28.07364008 136.21544238 20 114 C19.68724121 113.1455127 19.37448242 112.29102539 19.05224609 111.41064453 C9.85501278 85.97722866 4.48083942 59.75749949 1 33 C0.88366211 32.14164551 0.76732422 31.28329102 0.64746094 30.39892578 C-0.1034533 23.81468993 -0.04331692 17.24558002 -0.02294922 10.62866211 C-0.02129257 9.60617119 -0.01963593 8.58368027 -0.01792908 7.53020477 C-0.01362339 5.02012828 -0.00759697 2.51006833 0 0 Z " fill="#2294D9" transform="translate(1127,1127)"/>
<path d="M0 0 C1.27357984 -0.00384115 2.54715969 -0.00768229 3.85933286 -0.01163983 C5.29129117 -0.01085942 6.72324943 -0.0099806 8.15520763 -0.00901413 C9.6622922 -0.0115956 11.16937609 -0.01460814 12.67645901 -0.01801753 C16.83872819 -0.02611869 21.00098016 -0.02787886 25.16325629 -0.028615 C29.64575678 -0.03046056 34.12824823 -0.03800615 38.61074352 -0.04475021 C48.43043177 -0.05836396 58.25011594 -0.06436515 68.06981206 -0.06876087 C74.20943523 -0.07152251 80.34905683 -0.07576014 86.48867893 -0.08026505 C103.50383722 -0.09246987 120.51899423 -0.10276144 137.5341568 -0.10614014 C139.16981275 -0.10646949 139.16981275 -0.10646949 140.83851225 -0.10680549 C141.93154205 -0.10702377 143.02457184 -0.10724204 144.15072376 -0.10746694 C146.36553117 -0.1079104 148.58033858 -0.10835696 150.79514599 -0.10880661 C151.89376326 -0.10902804 152.99238053 -0.10924947 154.12428924 -0.10947761 C171.86241061 -0.11341203 189.60049055 -0.13081891 207.33859596 -0.15416613 C225.57264456 -0.17797072 243.80667249 -0.19034639 262.04073685 -0.19150805 C272.26863745 -0.1924206 282.49648432 -0.19806446 292.72437 -0.21632767 C301.44994474 -0.23185308 310.17544922 -0.23677739 318.90103517 -0.22858956 C323.34192318 -0.22472429 327.7826703 -0.22540576 332.22354031 -0.23964691 C357.68859083 -0.31660233 382.68128581 0.75168454 407.73923779 5.81892776 C409.01750439 6.07311478 410.29577099 6.32730179 411.61277294 6.58919144 C424.72142163 9.26222645 437.48056034 12.93840621 450.17673779 17.13142776 C451.23586376 17.4807637 452.29498974 17.83009964 453.38621044 18.19002151 C494.61723856 31.99479929 533.49225475 52.97891009 568.17673779 79.13142776 C568.78581982 79.58888382 569.39490185 80.04633987 570.02244091 80.51765823 C577.56300333 86.19813175 584.92328536 92.08943618 592.17673779 98.13142776 C593.17157177 98.95457474 594.16640575 99.77772171 595.19138622 100.62581253 C604.1903743 108.15405448 612.56866635 116.21354579 620.83762646 124.53157425 C622.99726333 126.70199338 625.16747681 128.86142594 627.33884716 131.02009964 C634.74745591 138.42162017 641.71771087 145.87877258 648.17673779 154.13142776 C649.12304533 155.25679528 650.07633204 156.3763753 651.04001904 157.48689651 C708.80181658 224.27685381 745.17673779 310.56907636 745.17673779 399.13142776 C525.72673779 399.13142776 306.27673779 399.13142776 80.17673779 399.13142776 C80.17673779 397.48142776 80.17673779 395.83142776 80.17673779 394.13142776 C78.20569031 392.20965648 76.39547575 390.71552406 74.17673779 389.13142776 C72.88388743 388.16295383 71.59226778 387.19283529 70.30173779 386.22127151 C69.62369091 385.71708694 68.94564404 385.21290237 68.24705029 384.69343948 C64.82292862 382.11000429 61.4998219 379.40537646 58.17673779 376.69392776 C57.50803661 376.14945999 56.83933544 375.60499222 56.1503706 375.04402542 C36.14896512 358.70164941 16.0519085 341.61720911 0.17673779 321.13142776 C-0.92351901 319.75798492 -2.02519899 318.38568152 -3.12794971 317.01424026 C-10.76609574 307.44864366 -17.67675192 297.71694427 -23.82326221 287.13142776 C-24.23527882 286.42550491 -24.64729542 285.71958206 -25.07179737 284.99226761 C-52.72338719 237.28451122 -68.37946746 188.20313938 -58.82326221 133.13142776 C-58.65165577 132.1087178 -58.48004932 131.08600784 -58.30324268 130.03230667 C-57.15084744 123.23018818 -55.86532739 116.46307333 -54.50929737 109.69881058 C-53.8229916 106.13002058 -53.23198598 102.55407852 -52.64748096 98.96736526 C-48.45077319 75.34330663 -38.04371397 55.15062309 -26.82326221 34.13142776 C-26.4684679 33.46492203 -26.11367359 32.79841629 -25.74812794 32.11171341 C-8.61601361 0.00968937 -8.61601361 0.00968937 0 0 Z " fill="#2294DA" transform="translate(1775.8232622146606,2453.8685722351074)"/>
<path d="M0 0 C0.52142578 0.41008301 1.04285156 0.82016602 1.58007812 1.24267578 C21.1253703 16.72902231 37.7231073 35.25597766 50 57 C50.3604541 57.63341309 50.7209082 58.26682617 51.09228516 58.91943359 C64.27985444 82.27722035 71.7335399 107.40382259 75 134 C75.0942627 134.70664795 75.18852539 135.4132959 75.28564453 136.14135742 C81.86586537 191.49643526 67.65223433 247.72849582 33.69921875 292 C11.14716753 320.20007826 -16.76494813 341.07623796 -51 353 C-51.71043457 353.24830566 -52.42086914 353.49661133 -53.15283203 353.75244141 C-74.27424537 360.94239174 -96.49380659 363.23240631 -118.6875 363.25 C-119.45700989 363.25067474 -120.22651978 363.25134949 -121.01934814 363.25204468 C-173.37997546 363.17953805 -220.32902708 345.4103096 -259 310 C-259.76699219 309.30519531 -260.53398437 308.61039063 -261.32421875 307.89453125 C-288.16432466 282.36104307 -305.50796662 245.09158067 -313.25 209.375 C-313.40114258 208.68470703 -313.55228516 207.99441406 -313.70800781 207.28320312 C-316.69216867 192.55775025 -317.37739288 177.85501822 -317.3125 162.875 C-317.31034485 161.97580841 -317.3081897 161.07661682 -317.30596924 160.150177 C-317.2526498 146.25614882 -316.80918932 132.65220577 -314 119 C-313.70198486 117.55149658 -313.70198486 117.55149658 -313.39794922 116.07373047 C-303.45810966 69.62080237 -277.78007794 25.19386981 -238 -2 C-236.97447021 -2.70286133 -236.97447021 -2.70286133 -235.92822266 -3.41992188 C-207.67030565 -22.52771539 -176.03461871 -34.01811498 -142 -37 C-141.34241699 -37.06171387 -140.68483398 -37.12342773 -140.00732422 -37.18701172 C-91.17989574 -41.58766688 -38.95226052 -30.97585541 0 0 Z " fill="#29A3E6" transform="translate(2933,1176)"/>
</svg>
