<?xml version="1.0" encoding="UTF-8"?>
<svg version="1.1" xmlns="http://www.w3.org/2000/svg" width="230" height="230">
<path d="M0 0 C1.44971947 -0.00043808 1.44971947 -0.00043808 2.9287262 -0.00088501 C6.11029159 0.00050379 9.29162025 0.01604394 12.47314453 0.03173828 C14.68417228 0.03547001 16.89520169 0.03831623 19.10623169 0.04031372 C24.91606234 0.04793759 30.72579247 0.06757546 36.5355835 0.08972168 C42.46788168 0.11020691 48.40019615 0.11932117 54.33251953 0.12939453 C65.96537612 0.15082246 77.5981582 0.18494344 89.23095703 0.22705078 C90.23854826 4.81820897 90.3424656 9.20477762 90.29345703 13.88720703 C90.2877771 15.12753944 90.2877771 15.12753944 90.28198242 16.39292908 C90.26980588 19.02519026 90.25117703 21.65733984 90.23095703 24.28955078 C90.20435448 27.7596 90.18436634 31.22959415 90.16845703 34.69970703 C90.16015869 35.49458023 90.15186035 36.28945343 90.14331055 37.1084137 C90.1275477 40.66041225 90.27146499 43.81069825 91.23095703 47.22705078 C90.24095703 47.88705078 89.25095703 48.54705078 88.23095703 49.22705078 C87.14814453 48.11330078 87.14814453 48.11330078 86.04345703 46.97705078 C83.5450313 44.53414563 80.99452502 42.35894608 78.23095703 40.22705078 C77.98990234 40.93345703 77.74884766 41.63986328 77.50048828 42.36767578 C76.02870907 45.68257543 74.17007304 48.13212843 71.91845703 50.97705078 C71.02083501 52.12120044 70.12372671 53.26575326 69.22705078 54.41064453 C68.74606934 55.02149902 68.26508789 55.63235352 67.76953125 56.26171875 C64.97567501 59.83051321 62.23115183 63.43707691 59.48095703 67.03955078 C58.95074951 67.73209961 58.42054199 68.42464844 57.87426758 69.13818359 C55.28984507 72.51635558 52.72064716 75.90453641 50.17626953 79.31298828 C48.30251434 81.81818424 46.40179135 84.29572867 44.45751953 86.74658203 C44.02568359 87.29378906 43.59384766 87.84099609 43.14892578 88.40478516 C42.26841568 89.5180585 41.38278046 90.62729303 40.49267578 91.73291016 C37.79565679 95.06467029 37.79565679 95.06467029 37.23095703 99.22705078 C37.91085693 99.21657715 38.59075684 99.20610352 39.29125977 99.1953125 C42.41695352 99.15334975 45.5425877 99.12759787 48.66845703 99.10205078 C49.73773438 99.08529297 50.80701172 99.06853516 51.90869141 99.05126953 C60.16368237 99.00078029 68.35803277 99.1627908 75.23095703 104.22705078 C75.77365234 104.61505859 76.31634766 105.00306641 76.87548828 105.40283203 C84.70799621 111.46065407 88.84511968 119.52618929 90.23095703 129.22705078 C88.06234202 131.39566579 83.0463491 130.51334098 80.03173828 130.57861328 C79.06941788 130.60253647 78.10709747 130.62645966 77.11561584 130.65110779 C64.82220569 130.94103487 52.52702812 131.10476557 40.23095703 131.22705078 C39.11392395 131.23967957 37.99689087 131.25230835 36.8460083 131.26531982 C30.43477883 131.33352564 24.02652169 131.3538307 17.61508179 131.30462646 C15.61854187 131.29462382 13.62188609 131.29811519 11.62539673 131.31549072 C-3.85840361 131.42968068 -3.85840361 131.42968068 -8.51245117 128.50024414 C-10.34317016 126.47004024 -11.57579388 124.67563389 -12.76904297 122.22705078 C-13.11523682 121.62441406 -13.46143066 121.02177734 -13.81811523 120.40087891 C-16.62849698 114.90831639 -16.38522534 110.1736269 -14.56591797 104.42626953 C-12.9098073 100.16244642 -10.56353963 96.959586 -7.64404297 93.47705078 C-6.65332337 92.25661813 -5.66375734 91.03524822 -4.67529297 89.81298828 C-4.18416016 89.21067383 -3.69302734 88.60835938 -3.18701172 87.98779297 C0.42147847 83.50700247 3.79617742 78.84120605 7.23095703 74.22705078 C8.05971653 73.12368444 8.88915892 72.02083075 9.71923828 70.91845703 C10.33387939 70.10175537 10.33387939 70.10175537 10.9609375 69.26855469 C12.10161749 67.75333683 13.24245426 66.238237 14.38330078 64.72314453 C15.71383466 62.92565796 16.99045114 61.08780962 18.23095703 59.22705078 C18.89095703 59.22705078 19.55095703 59.22705078 20.23095703 59.22705078 C20.56353516 58.2003125 20.56353516 58.2003125 20.90283203 57.15283203 C22.59436098 53.42649326 24.90698843 50.57163023 27.48095703 47.41455078 C28.42462938 46.24214899 29.36733108 45.06896528 30.30908203 43.89501953 C30.78023437 43.30897949 31.25138672 42.72293945 31.73681641 42.11914062 C34.30115943 38.87181082 36.76644971 35.55045083 39.23095703 32.22705078 C38.3547168 32.22817871 37.47847656 32.22930664 36.57568359 32.23046875 C33.2646436 32.22043 29.956014 32.1834804 26.64550781 32.12939453 C25.22405203 32.11143795 23.80242473 32.1036284 22.38085938 32.10693359 C12.74509963 32.12053382 4.25732595 31.19542107 -3.76904297 25.22705078 C-4.46670857 23.90967273 -5.13932124 22.57822537 -5.76904297 21.22705078 C-6.75904297 20.89705078 -7.74904297 20.56705078 -8.76904297 20.22705078 C-12.29616507 15.86157632 -16.25439218 10.86519205 -16.20654297 5.03955078 C-16.06216797 4.11142578 -15.91779297 3.18330078 -15.76904297 2.22705078 C-10.41496761 0.01811945 -5.68720411 -0.0452293 0 0 Z " fill="#3EACE9" transform="translate(77.76904296875,49.77294921875)"/>
<path d="M0 0 C1.13795344 0.00138269 1.13795344 0.00138269 2.29889584 0.00279331 C3.16692837 0.00141865 4.0349609 0.00004398 4.92929745 -0.00137234 C5.88882824 0.00222294 6.84835903 0.00581821 7.83696651 0.00952244 C8.84173031 0.00937641 9.8464941 0.00923038 10.88170528 0.00907993 C14.22024817 0.00977953 17.55873604 0.01757409 20.89726925 0.02539158 C23.20512518 0.02725559 25.51298151 0.02867957 27.82083797 0.0296793 C33.90854126 0.03350578 39.99622086 0.04333718 46.08391476 0.05438328 C52.29057654 0.0645946 58.49724212 0.06917632 64.70390987 0.0742197 C76.89207302 0.08495933 89.08021234 0.10255718 101.268363 0.12304783 C101.268363 13.65304783 101.268363 27.18304783 101.268363 41.12304783 C100.938363 41.12304783 100.608363 41.12304783 100.268363 41.12304783 C99.938363 28.91304783 99.608363 16.70304783 99.268363 4.12304783 C92.833363 3.87554783 92.833363 3.87554783 86.268363 3.62304783 C84.26322628 3.54473728 84.26322628 3.54473728 82.21758175 3.4648447 C76.22975188 3.23895651 70.26044911 3.06312697 64.268363 3.12304783 C64.577738 3.72117283 64.887113 4.31929783 65.205863 4.93554783 C67.09873659 8.83264051 67.5604102 10.98849677 66.268363 15.12304783 C64.27226925 18.06054783 64.27226925 18.06054783 61.830863 21.12304783 C58.97709593 24.71430526 56.76896594 27.7795941 55.268363 32.12304783 C54.773363 33.11304783 54.773363 33.11304783 54.268363 34.12304783 C53.278363 33.62804783 53.278363 33.62804783 52.268363 33.12304783 C52.598363 32.13304783 52.928363 31.14304783 53.268363 30.12304783 C52.3618298 30.15446873 51.45529659 30.18588963 50.52129269 30.21826267 C47.09917704 30.32163272 43.67876149 30.39626261 40.25566769 30.45263767 C38.78534636 30.48248051 37.31519775 30.52317216 35.84551144 30.57568455 C25.91342871 30.92120721 17.5695962 30.40982422 9.268363 24.12304783 C8.57213547 22.8049092 7.89979134 21.47342573 7.268363 20.12304783 C6.278363 19.79304783 5.288363 19.46304783 4.268363 19.12304783 C0.7687268 14.79159232 -3.19554583 9.77263471 -3.231637 3.99804783 C-2.5680605 0.18248297 -2.5680605 0.18248297 0 0 Z " fill="#2693D7" transform="translate(64.7316370010376,50.876952171325684)"/>
<path d="M0 0 C1.07443359 -0.00257813 2.14886719 -0.00515625 3.25585938 -0.0078125 C4.93325195 0.00378906 4.93325195 0.00378906 6.64453125 0.015625 C7.74345703 0.00789062 8.84238281 0.00015625 9.97460938 -0.0078125 C18.24832827 0.01192207 26.5715866 0.19213947 33.45703125 5.265625 C33.99972656 5.65363281 34.54242188 6.04164063 35.1015625 6.44140625 C42.93407043 12.49922829 47.07119389 20.56476351 48.45703125 30.265625 C46.88059899 31.84205726 45.29645257 31.40068817 43.10839844 31.41088867 C42.18363708 31.41726852 41.25887573 31.42364838 40.30609131 31.43022156 C39.29887024 31.43133438 38.29164917 31.4324472 37.25390625 31.43359375 C36.22396545 31.43692215 35.19402466 31.44025055 34.13287354 31.44367981 C31.94714811 31.44875496 29.7614149 31.45108796 27.57568359 31.45092773 C24.23522056 31.45310661 20.89509169 31.47123518 17.5546875 31.49023438 C15.43359488 31.49316971 13.31250069 31.49515357 11.19140625 31.49609375 C10.1922821 31.50327927 9.19315796 31.51046478 8.16375732 31.51786804 C1.93019901 31.4974083 -2.23471656 31.18916849 -7.16796875 27.078125 C-10.66380797 22.93831539 -12.32957139 19.22176742 -12.91796875 13.828125 C-12.48500162 9.71493725 -11.73569078 5.82470739 -9.54296875 2.265625 C-6.33131285 0.22988856 -3.76151804 0.00875572 0 0 Z " fill="#2594D7" transform="translate(119.54296875,148.734375)"/>
<path d="M0 0 C0 2.70105227 -0.14288558 5.31067428 -0.375 8 C-0.44460937 8.86625 -0.51421875 9.7325 -0.5859375 10.625 C-1 13 -1 13 -3 16 C-2.34 16 -1.68 16 -1 16 C-1.33 17.32 -1.66 18.64 -2 20 C-3.65 20 -5.3 20 -7 20 C-7.33 22.97 -7.66 25.94 -8 29 C-5.69 29 -3.38 29 -1 29 C-0.67 31.31 -0.34 33.62 0 36 C1.98 36.33 3.96 36.66 6 37 C6 37.33 6 37.66 6 38 C26.295 38.495 26.295 38.495 47 39 C44.57427078 41.42572922 43.9809963 41.25414094 40.66137695 41.26220703 C39.31406242 41.27068161 39.31406242 41.27068161 37.93952942 41.27932739 C36.96561752 41.27222748 35.99170563 41.26512756 34.98828125 41.2578125 C33.98669479 41.25175995 32.98510834 41.2457074 31.95317078 41.23947144 C29.82882313 41.22015909 27.70452519 41.19451523 25.58032227 41.16308594 C22.34234293 41.12534781 19.10723831 41.14045079 15.86914062 41.15625 C13.80464442 41.13089835 11.74018446 41.10235398 9.67578125 41.0703125 C8.71199051 41.0834549 7.74819977 41.09659729 6.75520325 41.11013794 C2.73337506 40.9962915 0.05112212 40.84423369 -3.15005493 38.27313232 C-7.68457957 33.20940587 -10.62645429 28.42416905 -11.375 21.5625 C-10.40462863 12.34397202 -5.90487173 6.84460191 0 0 Z " fill="#77C3EA" transform="translate(73,140)"/>
<path d="M0 0 C0.33 0 0.66 0 1 0 C1.02505615 1.00901367 1.0501123 2.01802734 1.07592773 3.05761719 C1.17022409 6.80741696 1.27039021 10.55704108 1.37231445 14.30664062 C1.41557931 15.92834357 1.45726028 17.55008958 1.49731445 19.171875 C1.55522214 21.50534027 1.61885698 23.83859043 1.68359375 26.171875 C1.70030624 26.89493835 1.71701874 27.61800171 1.73423767 28.36297607 C1.83202649 31.69890556 1.9845665 34.80554016 3 38 C2.01 38.66 1.02 39.32 0 40 C-0.721875 39.2575 -1.44375 38.515 -2.1875 37.75 C-4.68592573 35.30709485 -7.23643202 33.1318953 -10 31 C-10.99 33.475 -10.99 33.475 -12 36 C-12.33 36 -12.66 36 -13 36 C-13.125 31.25 -13.125 31.25 -12 29 C-11.195625 28.87625 -10.39125 28.7525 -9.5625 28.625 C-6.84016601 28.27432836 -6.84016601 28.27432836 -5.6875 25.9375 C-5.460625 25.298125 -5.23375 24.65875 -5 24 C-3 27 -3 27 -3 31 C-2.34 31.33 -1.68 31.66 -1 32 C-0.67 21.44 -0.34 10.88 0 0 Z " fill="#5CAFDC" transform="translate(166,59)"/>
<path d="M0 0 C2.64 0.33 5.28 0.66 8 1 C8.33 3.31 8.66 5.62 9 8 C11.97 8.495 11.97 8.495 15 9 C15 9.33 15 9.66 15 10 C35.295 10.495 35.295 10.495 56 11 C53.57427078 13.42572922 52.9809963 13.25414094 49.66137695 13.26220703 C48.31406242 13.27068161 48.31406242 13.27068161 46.93952942 13.27932739 C45.96561752 13.27222748 44.99170563 13.26512756 43.98828125 13.2578125 C42.98669479 13.25175995 41.98510834 13.2457074 40.95317078 13.23947144 C38.82882313 13.22015909 36.70452519 13.19451523 34.58032227 13.16308594 C31.34234293 13.12534781 28.10723831 13.14045079 24.86914062 13.15625 C22.80464442 13.13089835 20.74018446 13.10235398 18.67578125 13.0703125 C17.71199051 13.0834549 16.74819977 13.09659729 15.75520325 13.11013794 C11.73049222 12.9962099 9.04685115 12.82073317 5.81698608 10.28851318 C2.8558844 7.04437849 0.80330716 4.37740737 0 0 Z " fill="#75BCE0" transform="translate(64,168)"/>
<path d="M0 0 C0.66 1.32 1.32 2.64 2 4 C1.01 4.33 0.02 4.66 -1 5 C-1.33 6.65 -1.66 8.3 -2 10 C-1.01 10.33 -0.02 10.66 1 11 C-0.32 12.32 -1.64 13.64 -3 15 C-3.99 14.34 -4.98 13.68 -6 13 C-8.46526886 15.46526886 -8.95153693 17.71481573 -10 21 C-10.33 21.33 -10.66 21.66 -11 22 C-11 22.99 -11 23.98 -11 25 C-12.32 25.33 -13.64 25.66 -15 26 C-15 25.01 -15 24.02 -15 23 C-15.66 23.33 -16.32 23.66 -17 24 C-15.67046039 21.17282257 -14.17172379 18.7375837 -12.28515625 16.25 C-11.50301758 15.21359375 -11.50301758 15.21359375 -10.70507812 14.15625 C-10.16302734 13.4446875 -9.62097656 12.733125 -9.0625 12 C-8.52431641 11.2884375 -7.98613281 10.576875 -7.43164062 9.84375 C-6.42603154 8.51451087 -5.41910519 7.18626645 -4.41040039 5.859375 C-2.93298671 3.91165428 -1.46523501 1.95689374 0 0 Z " fill="#48ACE1" transform="translate(94,112)"/>
<path d="M0 0 C14.19 0 28.38 0 43 0 C42.67 0.99 42.34 1.98 42 3 C41.22398437 2.96970703 40.44796875 2.93941406 39.6484375 2.90820312 C36.09901791 2.77054664 32.5495119 2.63525432 29 2.5 C27.77925781 2.45230469 26.55851562 2.40460937 25.30078125 2.35546875 C19.19566329 2.12446429 13.10950384 1.93890496 7 2 C7.309375 2.598125 7.61875 3.19625 7.9375 3.8125 C9 6 9 6 10 9 C9.01 9.495 9.01 9.495 8 10 C6.79557292 8.50260417 5.59114583 7.00520833 4.38671875 5.5078125 C2.87729455 3.74707893 2.87729455 3.74707893 0 2 C0 1.34 0 0.68 0 0 Z " fill="#29A0E7" transform="translate(122,52)"/>
<path d="M0 0 C0.12375 0.639375 0.2475 1.27875 0.375 1.9375 C0.58125 2.618125 0.7875 3.29875 1 4 C1.66 4.33 2.32 4.66 3 5 C2.360625 5.12375 1.72125 5.2475 1.0625 5.375 C0.381875 5.58125 -0.29875 5.7875 -1 6 C-1.33 6.66 -1.66 7.32 -2 8 C-1.34 8.33 -0.68 8.66 0 9 C-0.78375 9.70125 -1.5675 10.4025 -2.375 11.125 C-5.10964614 14.12008862 -5.79566522 16.21494784 -7 20 C-10 21 -10 21 -14 21 C-14 20.01 -14 19.02 -14 18 C-13.34 18 -12.68 18 -12 18 C-11.77570313 17.31550781 -11.55140625 16.63101563 -11.3203125 15.92578125 C-9.65273699 12.23047338 -7.38844769 9.34515067 -4.875 6.1875 C-4.40707031 5.59001953 -3.93914062 4.99253906 -3.45703125 4.37695312 C-2.30994435 2.91383208 -1.15568766 1.45633703 0 0 Z " fill="#41AAE1" transform="translate(110,91)"/>
<path d="M0 0 C0.99 0.33 1.98 0.66 3 1 C1.73046875 2.46484375 0.4609375 3.9296875 -0.80859375 5.39453125 C-2.20871231 7.10712971 -2.20871231 7.10712971 -3 10 C-3.45375 10.4125 -3.9075 10.825 -4.375 11.25 C-6.77964237 13.83961486 -7.701626 16.72315134 -9 20 C-9.33 20 -9.66 20 -10 20 C-11.29243536 15.8803623 -12.26252625 12.33168317 -12 8 C-11.34 8 -10.68 8 -10 8 C-10 8.66 -10 9.32 -10 10 C-9.34 10 -8.68 10 -8 10 C-8.99 8.35 -9.98 6.7 -11 5 C-9 4 -9 4 -6 4 C-3.00667261 3.0022242 -2.05233685 2.2477975 0 0 Z " fill="#55B4E8" transform="translate(116,140)"/>
<path d="M0 0 C0.33 0.66 0.66 1.32 1 2 C5.95 2 10.9 2 16 2 C16 2.33 16 2.66 16 3 C12.12315913 4.19287411 9.08378077 5 5 5 C5.99 5.66 6.98 6.32 8 7 C7.25 8.9375 7.25 8.9375 6 11 C3.875 11.75 3.875 11.75 2 12 C-0.56295176 9.33025858 -0.99337817 8.09767206 -1.25 4.3125 C-1 1 -1 1 0 0 Z " fill="#28A2E8" transform="translate(63,51)"/>
<path d="M0 0 C0.33 0.99 0.66 1.98 1 3 C1.66 3 2.32 3 3 3 C3 2.34 3 1.68 3 1 C4.32 0.67 5.64 0.34 7 0 C6.54310816 5.05436595 4.06535132 7.99358314 1 11.8125 C0.30390625 12.7087207 0.30390625 12.7087207 -0.40625 13.62304688 C-1.57307336 15.10701554 -2.78298526 16.55690787 -4 18 C-4.33 18 -4.66 18 -5 18 C-5 15.69 -5 13.38 -5 11 C-4.01 11 -3.02 11 -2 11 C-1.67 9.68 -1.34 8.36 -1 7 C-1.66 6.67 -2.32 6.34 -3 6 C-2.67 4.68 -2.34 3.36 -2 2 C-1.34 2 -0.68 2 0 2 C0 1.34 0 0.68 0 0 Z " fill="#3BA8E2" transform="translate(136,106)"/>
<path d="M0 0 C0.495 0.99 0.495 0.99 1 2 C1.66 2.33 2.32 2.66 3 3 C5 4 5 4 6 6 C-7.2 6 -20.4 6 -34 6 C-34 5.67 -34 5.34 -34 5 C-22.65384417 4.36077995 -11.36783648 3.83061171 0 4 C0 2.68 0 1.36 0 0 Z " fill="#5EB9E7" transform="translate(110,173)"/>
<path d="M0 0 C4.84840403 3.9248985 6.27500854 10.05507004 7 16 C6.34 16.33 5.68 16.66 5 17 C4.67 15.68 4.34 14.36 4 13 C3.67 13.66 3.34 14.32 3 15 C1.35 15 -0.3 15 -2 15 C-1.34 14.67 -0.68 14.34 0 14 C-0.165 13.2575 -0.33 12.515 -0.5 11.75 C-1 9 -1 9 -1 5 C-0.34 4.67 0.32 4.34 1 4 C0.67 2.68 0.34 1.36 0 0 Z " fill="#48ADE4" transform="translate(161,163)"/>
<path d="M0 0 C4.96702804 1.27063508 7.71893937 3.04342689 11 7 C11 10 11 10 9.6875 11.6875 C8 13 8 13 5 13 C4.896875 12.236875 4.79375 11.47375 4.6875 10.6875 C4.23930177 7.98440058 4.23930177 7.98440058 2.5 6.5 C0.50098925 4.50098925 0.37109019 2.74606742 0 0 Z " fill="#299FE6" transform="translate(149,153)"/>
<path d="M0 0 C1.3968009 4.19040269 -0.13554325 6.12766676 -2 10 C-2.33 10.33 -2.66 10.66 -3 11 C-3 11.99 -3 12.98 -3 14 C-4.32 14.33 -5.64 14.66 -7 15 C-7 14.01 -7 13.02 -7 12 C-7.99 12.495 -7.99 12.495 -9 13 C-7.50923566 9.7173068 -5.61379679 7.06922559 -3.375 4.25 C-2.74335937 3.45078125 -2.11171875 2.6515625 -1.4609375 1.828125 C-0.97882813 1.22484375 -0.49671875 0.6215625 0 0 Z " fill="#68BDE8" transform="translate(86,123)"/>
<path d="M0 0 C0.33 0.66 0.66 1.32 1 2 C1.66 2 2.32 2 3 2 C3.33 1.34 3.66 0.68 4 0 C5.15941038 3.47823115 4.70820884 5.45895578 4 9 C1.36 8.67 -1.28 8.34 -4 8 C-4 6.35 -4 4.7 -4 3 C-3.01 3 -2.02 3 -1 3 C-0.67 2.01 -0.34 1.02 0 0 Z " fill="#24A2E1" transform="translate(115,87)"/>
<path d="M0 0 C0.66 0 1.32 0 2 0 C2 0.66 2 1.32 2 2 C2.66 2 3.32 2 4 2 C4.33 2.33 4.66 2.66 5 3 C5.33 2.34 5.66 1.68 6 1 C6.103125 1.639375 6.20625 2.27875 6.3125 2.9375 C6.539375 3.618125 6.76625 4.29875 7 5 C7.99 5.33 8.98 5.66 10 6 C9.01 6.495 9.01 6.495 8 7 C8 7.66 8 8.32 8 9 C9.65 9.33 11.3 9.66 13 10 C12.67 10.99 12.34 11.98 12 13 C10.125 12.75 10.125 12.75 8 12 C7.30062468 10.68352881 6.63270867 9.34977849 6 8 C5.01 7.67 4.02 7.34 3 7 C0 2.66666667 0 2.66666667 0 0 Z " fill="#59B3DF" transform="translate(66,63)"/>
<path d="M0 0 C1.65 0 3.3 0 5 0 C5.66 3.3 6.32 6.6 7 10 C6.01 10.495 6.01 10.495 5 11 C4.01 12.485 4.01 12.485 3 14 C3 12.68 3 11.36 3 10 C2.34 10 1.68 10 1 10 C1 9.34 1 8.68 1 8 C0.34 8 -0.32 8 -1 8 C0 6 0 6 3 5 C1.93798263 2.77260299 1.93798263 2.77260299 0 0 Z " fill="#289FDD" transform="translate(67,55)"/>
<path d="M0 0 C1.125 5.75 1.125 5.75 0 8 C-2.97 7.505 -2.97 7.505 -6 7 C-5.67 6.01 -5.34 5.02 -5 4 C-5.66 3.67 -6.32 3.34 -7 3 C-6.67 2.01 -6.34 1.02 -6 0 C-3.50907189 -1.24546405 -2.58919267 -0.7767578 0 0 Z " fill="#299DE2" transform="translate(80,65)"/>
<path d="M0 0 C1.9375 0.8125 1.9375 0.8125 4 2 C4.33 2.99 4.66 3.98 5 5 C3.78515625 7.04296875 3.78515625 7.04296875 2.0625 9.1875 C1.49660156 9.90292969 0.93070313 10.61835937 0.34765625 11.35546875 C-0.09707031 11.89816406 -0.54179687 12.44085938 -1 13 C-1.68707555 10.50935112 -2 8.62113708 -2 6 C-1.34 6 -0.68 6 0 6 C0 4.02 0 2.04 0 0 Z " fill="#4CAFE4" transform="translate(148,91)"/>
<path d="M0 0 C4.96702804 1.27063508 7.71893937 3.04342689 11 7 C11 7.99 11 8.98 11 10 C10.52949219 9.65066406 10.05898437 9.30132812 9.57421875 8.94140625 C8.95160156 8.48636719 8.32898438 8.03132812 7.6875 7.5625 C7.07261719 7.11003906 6.45773438 6.65757812 5.82421875 6.19140625 C3.90322899 4.82663692 3.90322899 4.82663692 1 4 C0.3125 1.9375 0.3125 1.9375 0 0 Z " fill="#69B6DE" transform="translate(149,153)"/>
<path d="M0 0 C2.49505962 2.49505962 2.35948376 3.67328888 2.625 7.125 C2.69976562 8.03507812 2.77453125 8.94515625 2.8515625 9.8828125 C2.92503906 10.93082031 2.92503906 10.93082031 3 12 C1 10.4375 1 10.4375 -1 8 C-1.3125 4.3125 -1.3125 4.3125 -1 1 C-0.67 0.67 -0.34 0.34 0 0 Z " fill="#91C8E5" transform="translate(63,51)"/>
<path d="M0 0 C0.66 1.32 1.32 2.64 2 4 C0.35 5.98 -1.3 7.96 -3 10 C-3.66 8.68 -4.32 7.36 -5 6 C-4.01 5.34 -3.02 4.68 -2 4 C-0.80767387 1.94996045 -0.80767387 1.94996045 0 0 Z " fill="#1989D0" transform="translate(125,67)"/>
<path d="M0 0 C0.99 0.33 1.98 0.66 3 1 C2.67 1.99 2.34 2.98 2 4 C-0.5625 5.1875 -0.5625 5.1875 -3 6 C-3 6.66 -3 7.32 -3 8 C-3.66 8 -4.32 8 -5 8 C-4.67 6.35 -4.34 4.7 -4 3 C-3.34 3 -2.68 3 -2 3 C-2 2.34 -2 1.68 -2 1 C-1.34 0.67 -0.68 0.34 0 0 Z " fill="#2BA1DF" transform="translate(126,123)"/>
<path d="M0 0 C1.39195915 4.17587745 -0.17676781 6.13474776 -2 10 C-2.66 9.67 -3.32 9.34 -4 9 C-4.66 9 -5.32 9 -6 9 C-4.47291037 5.56404834 -2.40072955 2.88087546 0 0 Z " fill="#8ACAE7" transform="translate(86,123)"/>
<path d="M0 0 C0.33 0.66 0.66 1.32 1 2 C1.66 2.33 2.32 2.66 3 3 C5 4 5 4 6 6 C2.04 6 -1.92 6 -6 6 C-6 5.67 -6 5.34 -6 5 C-4.02 4.67 -2.04 4.34 0 4 C0 2.68 0 1.36 0 0 Z " fill="#53B5EF" transform="translate(110,173)"/>
<path d="M0 0 C5.75 0.875 5.75 0.875 8 2 C7.67 2.99 7.34 3.98 7 5 C6.67 4.67 6.34 4.34 6 4 C5.01 4.33 4.02 4.66 3 5 C2.01 4.34 1.02 3.68 0 3 C0 2.01 0 1.02 0 0 Z " fill="#249CE5" transform="translate(81,73)"/>
<path d="M0 0 C0.33 0.66 0.66 1.32 1 2 C2.11375 1.95875 3.2275 1.9175 4.375 1.875 C8 2 8 2 10 4 C7.69 4.66 5.38 5.32 3 6 C1.68 4.35 0.36 2.7 -1 1 C-0.67 0.67 -0.34 0.34 0 0 Z " fill="#84C7E6" transform="translate(69,174)"/>
<path d="M0 0 C0 3.24792684 -0.6507329 5.07658794 -2 8 C-2.66 8.66 -3.32 9.32 -4 10 C-4.99 9.67 -5.98 9.34 -7 9 C-4.69 6.03 -2.38 3.06 0 0 Z " fill="#A1D3EA" transform="translate(73,140)"/>
<path d="M0 0 C2 3 2 3 1.625 6.1875 C1.41875 7.115625 1.2125 8.04375 1 9 C0.34 8.67 -0.32 8.34 -1 8 C-1 7.01 -1 6.02 -1 5 C-1.66 5 -2.32 5 -3 5 C-1.125 1.125 -1.125 1.125 0 0 Z " fill="#29A2E7" transform="translate(133,110)"/>
<path d="M0 0 C0.99 0 1.98 0 3 0 C3 2.31 3 4.62 3 7 C1.68 7.33 0.36 7.66 -1 8 C-0.7525 7.13375 -0.7525 7.13375 -0.5 6.25 C0.14462031 3.73335631 0.14462031 3.73335631 0 0 Z " fill="#2CA6EA" transform="translate(109,96)"/>
<path d="M0 0 C0.99 0.33 1.98 0.66 3 1 C2.67 2.65 2.34 4.3 2 6 C1.01 6.33 0.02 6.66 -1 7 C-1.66 6.67 -2.32 6.34 -3 6 C-3 5.34 -3 4.68 -3 4 C-2.34 4 -1.68 4 -1 4 C-0.67 2.68 -0.34 1.36 0 0 Z " fill="#44B1EC" transform="translate(85,129)"/>
<path d="M0 0 C1.9375 0.3125 1.9375 0.3125 4 1 C4.33 1.99 4.66 2.98 5 4 C3.35 4.33 1.7 4.66 0 5 C0 3.35 0 1.7 0 0 Z " fill="#33A4DF" transform="translate(111,90)"/>
<path d="M0 0 C0.66 0.33 1.32 0.66 2 1 C2.625 3.0625 2.625 3.0625 3 5 C2.01 5 1.02 5 0 5 C-1.33981486 5.3062434 -2.67511887 5.63451555 -4 6 C-3.67 5.01 -3.34 4.02 -3 3 C-2.34 3 -1.68 3 -1 3 C-0.67 2.01 -0.34 1.02 0 0 Z " fill="#65BCE7" transform="translate(99,106)"/>
<path d="M0 0 C1.98 0.495 1.98 0.495 4 1 C4 1.99 4 2.98 4 4 C3.01 4 2.02 4 1 4 C1 4.66 1 5.32 1 6 C0.34 6 -0.32 6 -1 6 C-0.67 4.02 -0.34 2.04 0 0 Z " fill="#2BA1EC" transform="translate(138,103)"/>
<path d="M0 0 C0.185625 0.8971875 0.185625 0.8971875 0.375 1.8125 C0.95475985 4.26231348 0.95475985 4.26231348 3 7 C1.68 7.33 0.36 7.66 -1 8 C-1.625 5.6875 -1.625 5.6875 -2 3 C-1.34 2.01 -0.68 1.02 0 0 Z " fill="#71C5EB" transform="translate(76,136)"/>
<path d="M0 0 C0.33 0.66 0.66 1.32 1 2 C0.67 2.66 0.34 3.32 0 4 C0.66 4.33 1.32 4.66 2 5 C0.02 5.99 0.02 5.99 -2 7 C-2.33 6.01 -2.66 5.02 -3 4 C-1.5625 1.8125 -1.5625 1.8125 0 0 Z " fill="#4EAEDE" transform="translate(79,134)"/>
<path d="M0 0 C0.33 1.32 0.66 2.64 1 4 C-0.32 4.99 -1.64 5.98 -3 7 C-3 6.34 -3 5.68 -3 5 C-3.66 4.67 -4.32 4.34 -5 4 C-4.01 4 -3.02 4 -2 4 C-2 3.01 -2 2.02 -2 1 C-1.34 0.67 -0.68 0.34 0 0 Z " fill="#5FB5DF" transform="translate(142,106)"/>
<path d="M0 0 C0.12375 0.639375 0.2475 1.27875 0.375 1.9375 C0.684375 2.9584375 0.684375 2.9584375 1 4 C1.66 4.33 2.32 4.66 3 5 C0.69 5.66 -1.62 6.32 -4 7 C-2.79618552 4.50638429 -1.54571278 2.31856917 0 0 Z " fill="#68BCE2" transform="translate(110,91)"/>
<path d="M0 0 C1.98 0.66 3.96 1.32 6 2 C6 2.66 6 3.32 6 4 C4.125 4.625 4.125 4.625 2 5 C1.34 4.34 0.68 3.68 0 3 C0 2.01 0 1.02 0 0 Z " fill="#269CE3" transform="translate(144,153)"/>
<path d="M0 0 C3 0 3 0 5 1 C3.69593116 3.01920337 2.36176581 5.01924973 1 7 C0.67 7 0.34 7 0 7 C0 4.69 0 2.38 0 0 Z " fill="#58B6E0" transform="translate(131,117)"/>
<path d="M0 0 C0.66 1.32 1.32 2.64 2 4 C1.360625 4.28875 0.72125 4.5775 0.0625 4.875 C-2.15206079 5.82823451 -2.15206079 5.82823451 -3 8 C-3.66 7.67 -4.32 7.34 -5 7 C-3.35 4.69 -1.7 2.38 0 0 Z " fill="#84CAE8" transform="translate(94,112)"/>
<path d="M0 0 C5.53846154 0.61538462 5.53846154 0.61538462 7.875 2.5625 C8.431875 3.2740625 8.431875 3.2740625 9 4 C3.46153846 3.38461538 3.46153846 3.38461538 1.125 1.4375 C0.75375 0.963125 0.3825 0.48875 0 0 Z " fill="#67AFD8" transform="translate(78,76)"/>
</svg>
